<svg xmlns="http://www.w3.org/2000/svg" width="700" height="260" viewBox="0 0 700 260" fill="none">
<defs>
  <linearGradient id="g" x1="0" y1="0" x2="1" y2="1">
    <stop stop-color="#1a5f4a"/>
    <stop offset="1" stop-color="#0f2e24"/>
  </linearGradient>
  <linearGradient id="o" x1="0" y1="0" x2="1" y2="1">
    <stop stop-color="#fbbf24"/>
    <stop offset="1" stop-color="#f97316"/>
  </linearGradient>
  <filter id="s" x="-20%" y="-20%" width="140%" height="140%">
    <feDropShadow dx="0" dy="8" stdDeviation="7" flood-color="#000000" flood-opacity=".25"/>
  </filter>
</defs>
<g filter="url(#s)">
  <path d="M58 150C112 108 162 111 206 164C250 111 300 108 354 150V190C293 160 245 170 206 215C167 170 119 160 58 190V150Z" fill="url(#g)"/>
  <path d="M80 142C122 120 160 126 194 164V188C153 157 119 156 80 176V142Z" fill="#fff" opacity=".96"/>
  <path d="M332 142C290 120 252 126 218 164V188C259 157 293 156 332 176V142Z" fill="#fff" opacity=".96"/>
  <path d="M206 20L223 74H280L234 107L251 160L206 128L161 160L178 107L132 74H189L206 20Z" fill="url(#o)"/>
  <circle cx="120" cy="60" r="12" fill="#f97316"/>
  <circle cx="292" cy="60" r="12" fill="#20b486"/>
  <path d="M132 82C162 106 185 130 201 166" stroke="#f97316" stroke-width="9" stroke-linecap="round"/>
  <path d="M280 82C250 106 227 130 211 166" stroke="#20b486" stroke-width="9" stroke-linecap="round"/>
</g>
<text x="520" y="88" text-anchor="middle" font-family="Arial, sans-serif" font-size="38" font-weight="900" fill="#ffffff">روضة نجوم المستقبل</text>
<text x="520" y="132" text-anchor="middle" font-family="Arial, sans-serif" font-size="22" font-weight="800" fill="#fbbf24">FUTURE STARS KINDERGARTEN</text>
</svg>